<?xml version="1.0" encoding="UTF-8" standalone="no"?>
<svg
   width="2048"
   height="2048"
   viewBox="0 0 2048 2048"
   fill="none"
   version="1.1"
   id="svg13"
   sodipodi:docname="builderLogoAISAT.svg"
   inkscape:version="1.4.2 (f4327f4, 2025-05-13)"
   xmlns:inkscape="http://www.inkscape.org/namespaces/inkscape"
   xmlns:sodipodi="http://sodipodi.sourceforge.net/DTD/sodipodi-0.dtd"
   xmlns="http://www.w3.org/2000/svg"
   xmlns:svg="http://www.w3.org/2000/svg">
  <defs
     id="defs13" />
  <sodipodi:namedview
     id="namedview13"
     pagecolor="#ffffff"
     bordercolor="#000000"
     borderopacity="0.25"
     inkscape:showpageshadow="2"
     inkscape:pageopacity="0.0"
     inkscape:pagecheckerboard="0"
     inkscape:deskcolor="#d1d1d1"
     inkscape:zoom="0.39404297"
     inkscape:cx="1025.2689"
     inkscape:cy="922.48823"
     inkscape:window-width="1920"
     inkscape:window-height="1046"
     inkscape:window-x="-11"
     inkscape:window-y="-11"
     inkscape:window-maximized="1"
     inkscape:current-layer="svg13" />
  <path
     d="M1529.44 1234.38V987.883C1529.44 987.553 1530.76 986.363 1530.44 985.383H1602.4C1601.85 986.663 1603.4 988.343 1603.4 988.883V1363.38C1597.52 1365.64 1592.44 1363.36 1586.92 1363.3C1569.91 1363.11 1552.02 1365.99 1534.88 1364.43C1533.65 1364.32 1532.62 1364.33 1531.38 1363.94C1528.24 1362.95 1515.6 1344.79 1512.63 1340.7C1463.78 1273.58 1418.44 1203.74 1370.33 1136.07C1365.6 1129.42 1360.69 1122.49 1355.52 1116.38V1273.88C1355.52 1273.99 1354.13 1275.38 1354.02 1275.38H1284.05C1283.49 1275.38 1282.52 1273.7 1282.55 1272.88C1280.26 1178.96 1282.22 1084.84 1281.5 990.833L1282.55 985.383H1353.01C1360.58 993.503 1366.84 1002.99 1373.31 1012.07C1424.29 1083.59 1473.48 1156.46 1524.01 1228.29C1525.46 1230.35 1527.26 1233.09 1529.42 1234.38H1529.44Z"
     fill="#FDFDFD"
     id="path1"
     style="fill:#af41ff;fill-opacity:1" />
  <path
     d="M660.88 1139.38L659.88 1052.38C611.35 1055.66 558.23 1064.01 532.42 1110.37C514.28 1142.95 513.21 1193.33 525.92 1227.91C545.34 1280.7 592.8 1293.49 644.34 1295.43C674.14 1296.56 704.17 1294.02 733.95 1295.97L733.84 1363.39C667.61 1361.64 599.23 1371.51 537.72 1342.1C450.87 1300.57 427.02 1201.8 450.26 1113.17C484.48 982.684 618.51 981.624 730.26 985.494L733.69 986.534C733.57 989.704 734.68 992.744 734.87 995.844C737.67 1040.47 732.65 1087.98 734.87 1132.92L733.83 1139.38H660.87H660.88Z"
     fill="#FDFDFD"
     id="path2"
     style="fill:#af41ff;fill-opacity:1" />
  <path
     d="M1121.39 986.653L1267.48 1363.3C1265.36 1363.7 1263.3 1364.28 1261.11 1364.43C1244.43 1365.55 1215.46 1365.94 1199.06 1364.43C1196.82 1364.23 1194.71 1364.28 1193.17 1362.33C1166.41 1293.69 1143.59 1223.5 1118.14 1154.38L1044.21 1362.41C1042.3 1364.36 1021.79 1363.19 1017.15 1363.34C1014.78 1363.42 1012.6 1364.38 1010.24 1364.42C996.339 1364.65 982.569 1364.16 968.719 1363.37L970.459 1354.62C1019.28 1238.51 1058.33 1115.81 1108.18 1000.41C1109.97 996.273 1114.96 980.453 1121.39 986.653Z"
     fill="#FDFDFD"
     id="path3"
     style="fill:#af41ff;fill-opacity:1" />
  <path
     d="m 417.99999,685.38302 c 2.21,-0.15 4.22,-0.88 6.46,-1.04 24.69,-1.81 63.22,-1.59 88.04,0 30.28,1.95 66.36,18.17 77.9,48.06 9.36,24.25 7.3,57.57 -13.95,74.99997 -4.98,4.08 -10.35,4.78 -14.5,9.48 17.71,7.81 31.82,22.75 35.77,42.23 0.29,1.45 -0.83,2.74 -0.81,3.68 0.02,0.69 1.83,0.1 2.09,2.01 0.51,3.8 0.51,17.34 0,21.14 -0.26,1.91 -2.06,1.31 -2.08,2.01 -0.35,10.44 -5.65,21.96 -13.02,30.89 -27.43,33.29 -76.66,25.01 -114.75,27.36 -0.15,-0.73 -1.17,-1.98 -1.17,-2.34 v -44 c 0,-0.11 1.39,-1.5 1.5,-1.5 h 45.98 c 27.99,0 47.03,-32.99 19.79,-49.8 -23.26,-14.36 -78.17,-6.94 -106.58,-7.58 -2.02,-0.05 -10.66,-0.61 -10.66,-2.12 V 685.36302 Z m 50.97,49 v 57.49997 c 0,1.1 2.44,1.43 3.45,1.55 12.72,1.49 45.21,-1.03 56.8,-6.26997 5.74,-2.59 12.46,-8.49 14.43,-14.56 4.49,-13.79 -4.52,-28.89 -17.04,-34.39 -17.9,-7.88 -38.62,-4.39 -57.64,-3.82 z"
     fill="#d2fd34"
     id="path4"
     style="fill:#5ddaff;fill-opacity:0.93292677" />
  <path
     d="m 1080.17,790.38302 c -1.1,-0.34 -1.65,-2.3 -1.55,-3.45 0.69,-33.87 -1.36,-67.88 1.49,-101.61 0.71,-1.03 1.94,-0.85 3.01,-0.99 14.96,-1.82 44.27,-0.77 60.06,0 77.88,3.84 130.73,37.51 135.38,119.54997 5.39,95.14 -50.41,137.8 -140.38,141.53 -14.88,0.62 -40.99,1.7 -55.06,0 -1.07,-0.13 -2.3,0.04 -3.01,-0.98 l -0.44,-105.06 h 49.48 c 1.09,0 1.43,2.44 1.55,3.45 0.9,7.69 -1.54,52.02 1,54.5 28.47,0.29 61.78,-4.2 80.88,-27.48 17.09,-20.82 18.34,-58.21 11.29,-83.22997 -10.28,-36.46 -42.62,-50.59 -77.74,-54.23 -2.21,-0.23 -15.48,-2.01 -15.48,0.49 v 57.5 h -50.47 z"
     fill="#d2fd34"
     id="path5"
     style="fill:#5ddaff;fill-opacity:0.93292677" />
  <path
     d="m 1452.48,686.88402 c 0.57,-1.87 4.71,-2.39 6.45,-2.55 24.39,-2.24 64.04,-1.25 89.04,0 54.57,2.73 84.32,32.79 80.46,88.58 -1.95,28.12997 -15.3,44.29997 -39.23,56.56997 -0.59,0.3 -2.79,2.45 -3,2.56 -0.71,0.37 -2.54,-2.05 -2.74,3.75 7.13,18.06 16.18,35.23 24.16,52.89 5.15,11.39 11.51,23.71 16.24,35.74 1.54,3.91 7.83,18.14 4.12,21.06 -1.91,1.5 -42.55,-0.91 -48.56,-0.6 -17.46,-32.93 -31.93,-67.38 -47.95,-101.03 -3.5,-4.38 -22.38,-2.46 -28.02,-1.47 v 101.5 c 0,0.11 -1.39,1.5 -1.5,1.5 h -48.48 l -0.56,-152.06 c 0.8,-1.14 2.75,-1.01 4.06,-1.03 31.68,-0.5 66.06,4.93 97.49,-1.36997 19.32,-3.88 28.45,-19.06 22,-38.08 -5.3,-15.64 -19.91,-18.79 -34.48,-19.5 -19.74,-0.97 -42.15,-0.35 -62.06,0 -3.34,0.06 -27.45,3.38 -27.45,-1.46 v -45 z"
     fill="#d2fd34"
     id="path6"
     style="fill:#5ddaff;fill-opacity:0.93292677" />
  <path
     d="m 803.31099,684.38302 c 1.1,0.34 1.65,2.3 1.55,3.45 -2.73,57.12 3.46,117.33997 0,174.08997 -0.81,13.3 -4.58,27.23 -11.23,38.76 -36.12,62.7 -152.49,58.96 -179.74,-9.78 -11.92,-30.07 -6.97,-96.12 -5.93,-129.97997 0.24,-7.74 -1.29,-20.19 -0.04,-27.04 0.15,-0.83 0.8,-2.5 1.5,-2.5 h 46.98 c 0.55,0 2.1,2.66 2.21,3.62 0.45,4.1 -0.93,12.68 -0.75,17.92 1.16,34.85 -2.01,72.62997 1.06,106.93997 3.56,39.8 61.19,48.01 85.47,22.55 3.96,-4.15 9.46,-14.91 9.46,-20.53 V 685.88302 c 0,-0.11 1.39,-1.5 1.5,-1.5 h 47.98 z"
     fill="#d2fd34"
     id="path7"
     style="fill:#5ddaff;fill-opacity:0.93292677" />
  <path
     d="m 1413.5,732.38302 c -0.98,-0.32 -2.17,1 -2.5,1 h -69.97 c -1.49,1.77 -1.44,5.9 -1.54,8.45 -0.64,15.9 1.47,31.68 1.04,47.55 l 102.49,-0.08 1.3,0.23 c 0.15,0.72 1.17,1.97997 1.17,2.33997 v 43 c 0,0.17 -1.54,1.76 -2.01,1.98 -34.16,1.66 -68.76,-0.89 -102.93,1.52 v 58.99 h 72.96 v 46.5 c 0,0.11 -1.39,1.5 -1.5,1.5 h -121.94 c -0.11,0 -1.5,-1.39 -1.5,-1.5 V 685.36302 l 124.94,0.5 v 46.5 z"
     fill="#d2fd34"
     id="path8"
     style="fill:#5ddaff;fill-opacity:0.93292677" />
  <path
     d="M820.802 986.383V1222.38C819.522 1221.83 817.842 1223.38 817.302 1223.38H747.832V985.383H818.292C818.622 985.383 819.812 986.703 820.792 986.383H820.802Z"
     fill="#FDFDFD"
     id="path9"
     style="fill:#af41ff;fill-opacity:1" />
  <path
     d="m 894.76299,899.88299 c 0.4,1.31 2.27,1.4 3.44,1.55 3.92,0.48 23.22,-2.41 24.55,-1.05 l 0.99,45.01 h -109.95 c 0.32,-0.98 -1,-2.17 -1,-2.5 v -42.5 c 10.12,-0.97 20.06,1.98 29.99,0 V 684.39302 h 50.47 c 0.11,0 1.5,1.39 1.5,1.5 v 213.99997 z"
     fill="#d2fd34"
     id="path10"
     style="fill:#5ddaff;fill-opacity:0.93292677" />
  <path
     d="M956.23 1294.38C957.78 1294.82 958.57 1297.32 958.78 1298.83C960.44 1311.14 959.67 1340.83 958.78 1353.92C958.56 1357.1 957.3 1360.12 957.74 1363.38C905.58 1362.31 853.43 1365.2 801.27 1364.42C786.55 1364.2 764 1365.04 750.29 1363.43C749.28 1363.31 746.84 1362.97 746.84 1361.88V1294.38H956.24H956.23Z"
     fill="#FDFDFD"
     id="path11"
     style="fill:#af41ff;fill-opacity:1" />
  <path
     d="m 978.72199,847.38299 h -50.97 V 686.88302 c 0,-0.24 -0.99,-0.85 -1.01,-1.49 1.03,0.33 2.17,-1.01 2.51,-1.01 h 47.98 c 0.11,0 1.5,1.39 1.5,1.5 v 161.49997 z"
     fill="#d2fd34"
     id="path12"
     style="fill:#5ddaff;fill-opacity:0.93292677" />
  <path
     d="m 1072.67,897.38299 v 48 H 929.23599 c -4.03,0 -1.42,-24.85 -1.45,-28.55 -0.05,-6.28 -2.66,-12.99 -0.05,-19.45 z"
     fill="#d2fd34"
     id="path13"
     style="display:inline;fill:#5ddaff;fill-opacity:0.93292677" />
</svg>
