<?xml version="1.0" encoding="UTF-8" standalone="no"?>
<!-- Uploaded to: SVG Repo, www.svgrepo.com, Generator: SVG Repo Mixer Tools -->

<svg
   fill="#000000"
   version="1.1"
   id="Capa_1"
   width="800px"
   height="800px"
   viewBox="0 0 546.125 546.125"
   xml:space="preserve"
   sodipodi:docname="easter-egg.svg"
   inkscape:version="1.4.2 (f4327f4, 2025-05-13)"
   xmlns:inkscape="http://www.inkscape.org/namespaces/inkscape"
   xmlns:sodipodi="http://sodipodi.sourceforge.net/DTD/sodipodi-0.dtd"
   xmlns:xlink="http://www.w3.org/1999/xlink"
   xmlns="http://www.w3.org/2000/svg"
   xmlns:svg="http://www.w3.org/2000/svg"><defs
   id="defs48"><linearGradient
   id="linearGradient479"
   inkscape:collect="always"><stop
     style="stop-color:#2dc1d0;stop-opacity:1;"
     offset="0"
     id="stop478" /><stop
     style="stop-color:#67d3de;stop-opacity:0;"
     offset="1"
     id="stop479" /></linearGradient><linearGradient
   id="linearGradient432"
   inkscape:collect="always"><stop
     style="stop-color:#2dc1d0;stop-opacity:1;"
     offset="0"
     id="stop432" /><stop
     style="stop-color:#2dc1d0;stop-opacity:0;"
     offset="1"
     id="stop433" /></linearGradient><linearGradient
   id="linearGradient48"
   inkscape:collect="always"><stop
     style="stop-color:#3426ae;stop-opacity:1;"
     offset="0"
     id="stop48" /><stop
     style="stop-color:#a126ae;stop-opacity:0;"
     offset="1"
     id="stop49" /></linearGradient>
	

		
		
		
		
		
		
		
		
		
		
		
		
		
		
		
		
		
		
		
		
		
		
		
		
		
		
		
		
		
		
		
		
		
		
		
		
		
		
		
		
		
		
		
		
		
		
		
		
	<linearGradient
   inkscape:collect="always"
   xlink:href="#linearGradient48"
   id="linearGradient49"
   x1="354.1076"
   y1="83.263138"
   x2="581.88489"
   y2="486.18018"
   gradientUnits="userSpaceOnUse" /><linearGradient
   inkscape:collect="always"
   xlink:href="#linearGradient432"
   id="linearGradient433"
   x1="386.41559"
   y1="405.36417"
   x2="73.087364"
   y2="93.389404"
   gradientUnits="userSpaceOnUse" /><linearGradient
   inkscape:collect="always"
   xlink:href="#linearGradient432"
   id="linearGradient434"
   x1="386.41559"
   y1="405.36417"
   x2="73.087364"
   y2="93.389404"
   gradientUnits="userSpaceOnUse" /><linearGradient
   inkscape:collect="always"
   xlink:href="#linearGradient432"
   id="linearGradient435"
   x1="386.41559"
   y1="405.36417"
   x2="73.087364"
   y2="93.389404"
   gradientUnits="userSpaceOnUse" /><linearGradient
   inkscape:collect="always"
   xlink:href="#linearGradient432"
   id="linearGradient436"
   x1="386.41559"
   y1="405.36417"
   x2="73.087364"
   y2="93.389404"
   gradientUnits="userSpaceOnUse" /><linearGradient
   inkscape:collect="always"
   xlink:href="#linearGradient432"
   id="linearGradient437"
   x1="386.41559"
   y1="405.36417"
   x2="73.087364"
   y2="93.389404"
   gradientUnits="userSpaceOnUse" /><linearGradient
   inkscape:collect="always"
   xlink:href="#linearGradient432"
   id="linearGradient438"
   x1="386.41559"
   y1="405.36417"
   x2="73.087364"
   y2="93.389404"
   gradientUnits="userSpaceOnUse" /><linearGradient
   inkscape:collect="always"
   xlink:href="#linearGradient432"
   id="linearGradient439"
   x1="386.41559"
   y1="405.36417"
   x2="73.087364"
   y2="93.389404"
   gradientUnits="userSpaceOnUse" /><linearGradient
   inkscape:collect="always"
   xlink:href="#linearGradient432"
   id="linearGradient440"
   x1="386.41559"
   y1="405.36417"
   x2="73.087364"
   y2="93.389404"
   gradientUnits="userSpaceOnUse" /><linearGradient
   inkscape:collect="always"
   xlink:href="#linearGradient432"
   id="linearGradient441"
   x1="386.41559"
   y1="405.36417"
   x2="73.087364"
   y2="93.389404"
   gradientUnits="userSpaceOnUse" /><linearGradient
   inkscape:collect="always"
   xlink:href="#linearGradient432"
   id="linearGradient442"
   x1="386.41559"
   y1="405.36417"
   x2="73.087364"
   y2="93.389404"
   gradientUnits="userSpaceOnUse" /><linearGradient
   inkscape:collect="always"
   xlink:href="#linearGradient432"
   id="linearGradient443"
   x1="386.41559"
   y1="405.36417"
   x2="73.087364"
   y2="93.389404"
   gradientUnits="userSpaceOnUse" /><linearGradient
   inkscape:collect="always"
   xlink:href="#linearGradient432"
   id="linearGradient444"
   x1="386.41559"
   y1="405.36417"
   x2="73.087364"
   y2="93.389404"
   gradientUnits="userSpaceOnUse" /><linearGradient
   inkscape:collect="always"
   xlink:href="#linearGradient432"
   id="linearGradient445"
   x1="386.41559"
   y1="405.36417"
   x2="73.087364"
   y2="93.389404"
   gradientUnits="userSpaceOnUse" /><linearGradient
   inkscape:collect="always"
   xlink:href="#linearGradient432"
   id="linearGradient446"
   x1="386.41559"
   y1="405.36417"
   x2="73.087364"
   y2="93.389404"
   gradientUnits="userSpaceOnUse" /><linearGradient
   inkscape:collect="always"
   xlink:href="#linearGradient432"
   id="linearGradient447"
   x1="386.41559"
   y1="405.36417"
   x2="73.087364"
   y2="93.389404"
   gradientUnits="userSpaceOnUse" /><linearGradient
   inkscape:collect="always"
   xlink:href="#linearGradient432"
   id="linearGradient448"
   x1="386.41559"
   y1="405.36417"
   x2="73.087364"
   y2="93.389404"
   gradientUnits="userSpaceOnUse" /><linearGradient
   inkscape:collect="always"
   xlink:href="#linearGradient432"
   id="linearGradient449"
   x1="386.41559"
   y1="405.36417"
   x2="73.087364"
   y2="93.389404"
   gradientUnits="userSpaceOnUse" /><linearGradient
   inkscape:collect="always"
   xlink:href="#linearGradient432"
   id="linearGradient450"
   x1="386.41559"
   y1="405.36417"
   x2="73.087364"
   y2="93.389404"
   gradientUnits="userSpaceOnUse" /><linearGradient
   inkscape:collect="always"
   xlink:href="#linearGradient432"
   id="linearGradient451"
   x1="386.41559"
   y1="405.36417"
   x2="73.087364"
   y2="93.389404"
   gradientUnits="userSpaceOnUse" /><linearGradient
   inkscape:collect="always"
   xlink:href="#linearGradient432"
   id="linearGradient452"
   x1="386.41559"
   y1="405.36417"
   x2="73.087364"
   y2="93.389404"
   gradientUnits="userSpaceOnUse" /><linearGradient
   inkscape:collect="always"
   xlink:href="#linearGradient432"
   id="linearGradient453"
   x1="386.41559"
   y1="405.36417"
   x2="73.087364"
   y2="93.389404"
   gradientUnits="userSpaceOnUse" /><linearGradient
   inkscape:collect="always"
   xlink:href="#linearGradient432"
   id="linearGradient454"
   x1="386.41559"
   y1="405.36417"
   x2="73.087364"
   y2="93.389404"
   gradientUnits="userSpaceOnUse" /><linearGradient
   inkscape:collect="always"
   xlink:href="#linearGradient432"
   id="linearGradient455"
   x1="386.41559"
   y1="405.36417"
   x2="73.087364"
   y2="93.389404"
   gradientUnits="userSpaceOnUse" /><linearGradient
   inkscape:collect="always"
   xlink:href="#linearGradient432"
   id="linearGradient456"
   x1="386.41559"
   y1="405.36417"
   x2="73.087364"
   y2="93.389404"
   gradientUnits="userSpaceOnUse" /><linearGradient
   inkscape:collect="always"
   xlink:href="#linearGradient432"
   id="linearGradient457"
   x1="386.41559"
   y1="405.36417"
   x2="73.087364"
   y2="93.389404"
   gradientUnits="userSpaceOnUse" /><linearGradient
   inkscape:collect="always"
   xlink:href="#linearGradient432"
   id="linearGradient458"
   x1="386.41559"
   y1="401.53598"
   x2="73.087364"
   y2="89.561218"
   gradientUnits="userSpaceOnUse" /><linearGradient
   inkscape:collect="always"
   xlink:href="#linearGradient432"
   id="linearGradient459"
   x1="386.41559"
   y1="405.36417"
   x2="73.087364"
   y2="93.389404"
   gradientUnits="userSpaceOnUse" /><linearGradient
   inkscape:collect="always"
   xlink:href="#linearGradient432"
   id="linearGradient460"
   x1="386.41559"
   y1="405.36417"
   x2="73.087364"
   y2="93.389404"
   gradientUnits="userSpaceOnUse" /><linearGradient
   inkscape:collect="always"
   xlink:href="#linearGradient432"
   id="linearGradient461"
   x1="386.41559"
   y1="405.36417"
   x2="73.087364"
   y2="93.389404"
   gradientUnits="userSpaceOnUse" /><linearGradient
   inkscape:collect="always"
   xlink:href="#linearGradient432"
   id="linearGradient462"
   x1="386.41559"
   y1="405.36417"
   x2="73.087364"
   y2="93.389404"
   gradientUnits="userSpaceOnUse" /><linearGradient
   inkscape:collect="always"
   xlink:href="#linearGradient432"
   id="linearGradient463"
   x1="386.41559"
   y1="405.36417"
   x2="73.087364"
   y2="93.389404"
   gradientUnits="userSpaceOnUse" /><linearGradient
   inkscape:collect="always"
   xlink:href="#linearGradient432"
   id="linearGradient464"
   x1="386.41559"
   y1="405.36417"
   x2="73.087364"
   y2="93.389404"
   gradientUnits="userSpaceOnUse" /><linearGradient
   inkscape:collect="always"
   xlink:href="#linearGradient432"
   id="linearGradient465"
   x1="386.41559"
   y1="405.36417"
   x2="73.087364"
   y2="93.389404"
   gradientUnits="userSpaceOnUse" /><linearGradient
   inkscape:collect="always"
   xlink:href="#linearGradient432"
   id="linearGradient466"
   x1="386.41559"
   y1="405.36417"
   x2="73.087364"
   y2="93.389404"
   gradientUnits="userSpaceOnUse" /><linearGradient
   inkscape:collect="always"
   xlink:href="#linearGradient432"
   id="linearGradient467"
   x1="386.41559"
   y1="405.36417"
   x2="73.087364"
   y2="93.389404"
   gradientUnits="userSpaceOnUse" /><linearGradient
   inkscape:collect="always"
   xlink:href="#linearGradient432"
   id="linearGradient468"
   x1="386.41559"
   y1="405.36417"
   x2="73.087364"
   y2="93.389404"
   gradientUnits="userSpaceOnUse" /><linearGradient
   inkscape:collect="always"
   xlink:href="#linearGradient432"
   id="linearGradient469"
   x1="386.41559"
   y1="405.36417"
   x2="73.087364"
   y2="93.389404"
   gradientUnits="userSpaceOnUse" /><linearGradient
   inkscape:collect="always"
   xlink:href="#linearGradient432"
   id="linearGradient470"
   x1="386.41559"
   y1="405.36417"
   x2="73.087364"
   y2="93.389404"
   gradientUnits="userSpaceOnUse" /><linearGradient
   inkscape:collect="always"
   xlink:href="#linearGradient432"
   id="linearGradient471"
   x1="386.41559"
   y1="405.36417"
   x2="73.087364"
   y2="93.389404"
   gradientUnits="userSpaceOnUse" /><linearGradient
   inkscape:collect="always"
   xlink:href="#linearGradient432"
   id="linearGradient472"
   x1="386.41559"
   y1="405.36417"
   x2="73.087364"
   y2="93.389404"
   gradientUnits="userSpaceOnUse" /><linearGradient
   inkscape:collect="always"
   xlink:href="#linearGradient432"
   id="linearGradient473"
   x1="386.41559"
   y1="405.36417"
   x2="73.087364"
   y2="93.389404"
   gradientUnits="userSpaceOnUse" /><linearGradient
   inkscape:collect="always"
   xlink:href="#linearGradient432"
   id="linearGradient474"
   x1="386.41559"
   y1="405.36417"
   x2="73.087364"
   y2="93.389404"
   gradientUnits="userSpaceOnUse" /><linearGradient
   inkscape:collect="always"
   xlink:href="#linearGradient432"
   id="linearGradient475"
   x1="386.41559"
   y1="405.36417"
   x2="73.087364"
   y2="93.389404"
   gradientUnits="userSpaceOnUse" /><linearGradient
   inkscape:collect="always"
   xlink:href="#linearGradient432"
   id="linearGradient476"
   x1="386.41559"
   y1="405.36417"
   x2="73.087364"
   y2="93.389404"
   gradientUnits="userSpaceOnUse" /><linearGradient
   inkscape:collect="always"
   xlink:href="#linearGradient432"
   id="linearGradient477"
   x1="386.41559"
   y1="405.36417"
   x2="73.087364"
   y2="93.389404"
   gradientUnits="userSpaceOnUse" /><linearGradient
   inkscape:collect="always"
   xlink:href="#linearGradient479"
   id="linearGradient478"
   x1="386.41559"
   y1="405.36417"
   x2="73.087364"
   y2="93.389404"
   gradientUnits="userSpaceOnUse" /></defs><sodipodi:namedview
   id="namedview48"
   pagecolor="#ffffff"
   bordercolor="#000000"
   borderopacity="0.25"
   inkscape:showpageshadow="2"
   inkscape:pageopacity="0.0"
   inkscape:pagecheckerboard="0"
   inkscape:deskcolor="#d1d1d1"
   inkscape:zoom="0.71329397"
   inkscape:cx="527.1319"
   inkscape:cy="443.71608"
   inkscape:window-width="1920"
   inkscape:window-height="1046"
   inkscape:window-x="-11"
   inkscape:window-y="-11"
   inkscape:window-maximized="1"
   inkscape:current-layer="Capa_1" />
<g
   id="g479"
   transform="translate(0.95704756,-4.7852378)"><polygon
     points="209.819,419.502 210.271,419.672 209.562,418.645 210.773,414.244 208.417,415.053 "
     id="polygon1"
     style="fill:url(#linearGradient433);fill-opacity:1" /><polygon
     points="201.569,418.908 200.284,419.893 202.946,420.891 "
     id="polygon2"
     style="fill:url(#linearGradient434);fill-opacity:1" /><polygon
     points="218.735,345.334 219.757,345.51 219.201,345.051 218.895,345.156 "
     id="polygon3"
     style="fill:url(#linearGradient435);fill-opacity:1" /><polygon
     points="206.808,415.604 203.503,412.836 203.705,417.273 202.132,418.479 205.804,418.662 207.94,415.217 "
     id="polygon4"
     style="fill:url(#linearGradient436);fill-opacity:1" /><polygon
     points="265.835,378.223 262.524,375.455 262.726,379.893 259.311,382.512 263.473,384.072 264.844,388.418 267.059,384.838 271.214,385.045 268.589,381.27 269.801,376.863 "
     id="polygon5"
     style="fill:url(#linearGradient437);fill-opacity:1" /><polygon
     points="226.765,327.615 238.925,332.17 228.932,339.818 229.28,347.213 230.755,347.475 236.08,359.635 241.22,347.635 253.179,345.816 244.427,336.068 246.337,322.652 235.804,328.84 225.217,322.389 225.309,322.988 "
     id="polygon6"
     style="fill:url(#linearGradient438);fill-opacity:1" /><polygon
     points="106.011,343.166 105.448,343.914 106.648,344.531 "
     id="polygon7"
     style="fill:url(#linearGradient439);fill-opacity:1" /><polygon
     points="92.106,334.25 99.481,329.617 99.72,326.158 97.345,326.312 92.596,319.176 93.643,327.707 88.949,331.27 "
     id="polygon8"
     style="fill:url(#linearGradient440);fill-opacity:1" /><polygon
     points="171.391,310.596 155.13,316.049 162.805,321.992 169.929,320.125 "
     id="polygon9"
     style="fill:url(#linearGradient441);fill-opacity:1" /><polygon
     points="264.231,451.008 270.633,453.406 272.781,460.23 276.264,454.6 282.751,454.93 278.662,449.043 280.535,442.236 274.396,444.336 269.164,439.973 269.495,446.98 "
     id="polygon10"
     style="fill:url(#linearGradient442);fill-opacity:1" /><polygon
     points="147.26,315.975 128.117,299.629 132.315,327.641 131.917,327.971 115.479,341.9 115.98,342.891 114.94,342.701 139.2,353.014 139.341,353.375 150.112,380.615 160.785,358.688 184.892,361.006 176.14,349.115 166.263,348.473 154.316,363.008 149.108,344.979 130.467,338.467 146.966,328.613 "
     id="polygon11"
     style="fill:url(#linearGradient443);fill-opacity:1" /><polygon
     points="200.761,485.457 204.641,482.109 209.231,483.877 207.854,478.424 210.981,473.725 206.08,473.891 203.533,469.447 201.93,474.746 197.022,476.602 201.03,479.949 "
     id="polygon12"
     style="fill:url(#linearGradient444);fill-opacity:1" /><polygon
     points="186.257,317.756 190.963,319.52 192.518,324.451 195.039,320.383 199.751,320.621 196.777,316.336 198.148,311.361 193.649,312.896 189.88,309.746 190.118,314.801 "
     id="polygon13"
     style="fill:url(#linearGradient445);fill-opacity:1" /><polygon
     points="99.977,338.688 92.437,334.562 95.668,337.615 95.736,337.861 98.453,347.592 100.613,342.273 "
     id="polygon14"
     style="fill:url(#linearGradient446);fill-opacity:1" /><polygon
     points="324.275,267.835 339.171,269.072 349.63,254.947 352.831,272.517 356.344,274.047 363.541,272.934 352.562,260.693 355.021,243.759 341.698,251.611 328.326,243.496 330.971,260.437 "
     id="polygon15"
     style="fill:url(#linearGradient447);fill-opacity:1" /><polygon
     points="323.699,268.466 320.095,272.45 326.484,273.576 "
     id="polygon16"
     style="fill:url(#linearGradient448);fill-opacity:1" /><polygon
     points="387.317,405.125 388.376,408.498 390.096,405.725 393.333,405.885 391.283,402.941 392.237,399.482 389.122,400.547 386.57,398.412 386.729,401.846 384.043,403.902 "
     id="polygon17"
     style="fill:url(#linearGradient449);fill-opacity:1" /><polygon
     points="387.666,323.822 384.245,326.441 388.412,328.002 389.777,332.346 391.999,328.766 396.154,328.975 393.529,325.191 393.578,324.996 389.178,325.143 391.301,321.967 390.769,322.15 387.458,319.379 "
     id="polygon18"
     style="fill:url(#linearGradient450);fill-opacity:1" /><polygon
     points="436.191,308.453 437.739,313.393 440.268,309.316 444.979,309.555 441.999,305.271 443.37,300.289 438.884,301.826 435.108,298.686 435.353,303.736 431.491,306.686 "
     id="polygon19"
     style="fill:url(#linearGradient451);fill-opacity:1" /><polygon
     points="332.604,475.879 333.583,478.963 335.15,476.424 338.112,476.576 336.233,473.871 337.108,470.701 334.257,471.688 331.925,469.734 332.072,472.855 329.6,474.752 "
     id="polygon20"
     style="fill:url(#linearGradient452);fill-opacity:1" /><polygon
     points="281.9,250.314 282.971,253.221 301.625,260.736 305.389,242.664 "
     id="polygon21"
     style="fill:url(#linearGradient453);fill-opacity:1" /><polygon
     points="255.504,230.865 257.188,246.299 262.5,236.728 "
     id="polygon22"
     style="fill:url(#linearGradient454);fill-opacity:1" /><polygon
     points="245.511,282.09 247.579,272.156 247.077,271.471 237.64,278.918 "
     id="polygon23"
     style="fill:url(#linearGradient455);fill-opacity:1" /><polygon
     points="321.949,344.324 322.812,350.785 318.822,354.494 324.434,357.658 326.698,364.416 328.822,359.379 333.914,360.309 330.138,354.092 331.013,347.199 326.153,348.773 "
     id="polygon24"
     style="fill:url(#linearGradient456);fill-opacity:1" /><polygon
     points="289.862,282.352 291.386,296.281 318.467,298.49 300.554,273.925 "
     id="polygon25"
     style="fill:url(#linearGradient457);fill-opacity:1" /><polygon
     points="284.14,307.578 267.996,294.053 267.102,294.348 276.814,320.773 "
     id="polygon26"
     transform="translate(0,3.8281902)"
     style="fill:url(#linearGradient458);fill-opacity:1" /><polygon
     points="97.627,255.883 96.611,250.84 94.646,255.73 90.295,256.514 92.908,261.654 91.69,267.688 95.209,265.057 98.251,268.117 98.202,261.893 101.739,257.132 "
     id="polygon27"
     style="fill:url(#linearGradient459);fill-opacity:1" /><polygon
     points="339.281,120.919 340.377,119.156 337.983,117.167 338.149,120.594 337.818,120.845 "
     id="polygon28"
     style="fill:url(#linearGradient460);fill-opacity:1" /><polygon
     points="116.36,194.481 115.632,190.84 114.218,194.371 110.81,194.977 112.866,199.004 111.954,203.533 114.573,201.574 116.85,203.869 116.813,199.169 119.579,195.454 "
     id="polygon29"
     style="fill:url(#linearGradient461);fill-opacity:1" /><polygon
     points="389.116,143.257 385.285,141.917 384.178,138.079 381.638,141.17 377.586,140.907 379.894,144.089 378.437,147.7 382.402,146.653 385.641,149.163 385.732,145.27 "
     id="polygon30"
     style="fill:url(#linearGradient462);fill-opacity:1" /><polygon
     points="98.93,365.266 95.203,364.605 96.58,371.465 "
     id="polygon31"
     style="fill:url(#linearGradient463);fill-opacity:1" /><polygon
     points="371.19,195.852 363.719,195.369 374.122,209.695 367.635,225.699 377.066,223.227 379.526,207.174 "
     id="polygon32"
     style="fill:url(#linearGradient464);fill-opacity:1" /><polygon
     points="399.539,232.193 399.624,228.521 398.07,227.199 394.594,228.361 "
     id="polygon33"
     style="fill:url(#linearGradient465);fill-opacity:1" /><polygon
     points="221.312,245.883 207.064,250.259 196.312,239.598 195.057,256.128 182.175,264.996 191.593,269.09 198.699,267.989 205.89,251.305 213.246,268.147 219.617,269.274 215.266,261.263 "
     id="polygon34"
     style="fill:url(#linearGradient466);fill-opacity:1" /><polygon
     points="193.264,179.2 189.947,176.439 190.155,180.882 186.74,183.496 190.896,185.05 192.272,189.402 194.482,185.821 198.644,186.029 196.012,182.248 197.224,177.841 "
     id="polygon35"
     style="fill:url(#linearGradient467);fill-opacity:1" /><polygon
     points="115.509,388.002 108.208,391.318 115.13,399.568 115.142,399.875 115.76,411.875 121.122,405.076 128.257,409.605 125.467,398.73 114.224,392.684 126.177,387.328 126.177,387.133 121.917,386.9 116.88,377.084 "
     id="polygon36"
     style="fill:url(#linearGradient468);fill-opacity:1" /><polygon
     points="216.648,101.659 212.683,103.018 209.372,100.258 209.574,104.695 206.153,107.314 210.32,108.875 211.691,113.22 213.907,109.64 218.068,109.848 215.437,106.065 "
     id="polygon37"
     style="fill:url(#linearGradient469);fill-opacity:1" /><polygon
     points="151.734,224.726 153.019,220.051 151.973,220.087 149.427,215.638 147.823,220.938 142.915,222.792 146.93,226.14 146.654,231.648 150.528,228.307 155.124,230.069 153.747,224.61 154.243,223.863 "
     id="polygon38"
     style="fill:url(#linearGradient470);fill-opacity:1" /><polygon
     points="343.32,119.438 343.65,118.232 343.008,118.453 "
     id="polygon39"
     style="fill:url(#linearGradient471);fill-opacity:1" /><polygon
     points="156.618,414.121 157.333,411.516 154.99,412.316 153.111,410.75 153.233,413.271 151.195,414.832 153.674,415.756 154.463,418.26 155.73,416.209 158.154,416.324 "
     id="polygon40"
     style="fill:url(#linearGradient472);fill-opacity:1" /><polygon
     points="245.119,158.918 238.986,161.011 233.748,156.653 234.078,163.655 228.815,167.688 235.217,170.087 237.371,176.911 240.847,171.28 247.34,171.604 243.246,165.717 "
     id="polygon41"
     style="fill:url(#linearGradient473);fill-opacity:1" /><polygon
     points="270.939,49.676 266.453,51.212 262.683,48.066 262.916,53.122 259.06,56.078 263.76,57.834 265.309,62.779 267.83,58.709 272.549,58.941 269.574,54.658 "
     id="polygon42"
     style="fill:#2dc0cf;fill-opacity:1" /><polygon
     points="323.008,62.259 322.084,59.223 320.334,61.243 317.721,60.649 319.3,63.018 318.283,65.692 321.295,65.361 323.491,67.406 323.449,64.811 325.817,63.703 "
     id="polygon43"
     style="fill:url(#linearGradient474);fill-opacity:1" /><polygon
     points="339.03,196.434 329.446,199.72 321.441,208.576 323.394,220.871 325.535,227.682 331.625,217.841 342.898,218.404 335.799,208.184 "
     id="polygon44"
     style="fill:url(#linearGradient475);fill-opacity:1" /><polygon
     points="278.656,132.896 274.69,134.248 271.38,131.482 271.588,135.925 268.167,138.544 272.328,140.093 273.693,144.444 275.915,140.864 280.07,141.078 277.444,137.29 "
     id="polygon45"
     style="fill:url(#linearGradient476);fill-opacity:1" /><polygon
     points="277.714,200.136 273.944,196.99 274.183,202.045 270.327,205.001 275.021,206.758 276.569,211.703 279.091,207.633 283.81,207.866 280.835,203.582 282.2,198.6 "
     id="polygon46"
     style="fill:url(#linearGradient477);fill-opacity:1" /><polygon
     points="319.416,196.091 324.813,197.058 319.244,192.413 "
     id="polygon47"
     style="fill:url(#linearGradient478);fill-opacity:1" /><path
     d="M 273.057,-1.6854986e-7 C 202.279,-1.6854986e-7 149.097,81.102 123.699,129.444 87.616001,198.117 63.374001,283.846 63.374001,342.776 c 0,114.027 92.105999,203.35 209.688999,203.35 117.584,0 209.689,-89.322 209.689,-203.35 0,-58.93 -24.241,-144.665 -60.324,-213.332 C 397.018,81.102 343.834,-1.6854992e-7 273.057,-1.6854986e-7 Z M 391.589,126.935 l 2.038,-3.292 1.254,3.978 3.617,1.353 -2.974,2.277 0.195,4.125 -3.084,-2.577 -3.495,1.199 1.059,-3.862 -2.355,-3.39 z m -6.61,7.282 1.812,6.273 6.64,2.319 -5.881,3.507 -0.147,6.518 -5.403,-4.186 -6.646,1.738 2.46,-6.059 -4.015,-5.52 7.014,0.465 z m -10.257,-57.344 -2.288,-1.181 -0.852,-2.809 c 1.06,1.328 2.106,2.65 3.14,3.99 z m -6.426,-4.522 1.487,-1.714 c 0.392,0.484 0.777,0.973 1.169,1.457 l -1.989,2.289 -3.524,-0.802 2.129,3.188 -1.31,3.439 3.874,-0.422 2.926,2.724 -0.049,-3.482 2.479,-1.157 c 0.379,0.496 0.759,0.998 1.138,1.493 l -1.762,0.82 0.098,6.609 -5.459,-5.098 -6.01,0.661 2.025,-5.368 -4.149,-6.23 z m -10.704,151.512 5.833,2.185 -4.792,3.666 0.318,6.665 -4.982,-4.156 -5.643,1.934 1.714,-6.243 -3.794,-5.465 6.04,0.3 3.293,-5.312 z m -20.343,-165.148 5.734,2.209 5.092,-4.394 -0.354,7.191 4.865,4.064 -5.955,2.246 -2.08,6.91 -3.336,-5.814 -6.145,0.208 3.898,-5.838 z m -3.451,61.929 1.188,0.061 1.285,-0.985 -0.318,-6.64 4.969,4.149 0.809,-0.275 0.532,-0.857 0.189,0.612 3.893,-1.328 -1.658,5.973 0.752,1.083 3.948,1.481 -1.91,1.463 0.899,1.291 -2.423,-0.122 -0.918,0.704 0.281,6.046 -4.517,-3.77 -0.33,0.11 -1.236,2.001 -0.447,-1.42 -3.108,1.065 1.555,-5.661 -0.307,-0.44 -5.232,-1.958 2.527,-1.934 z m -14.138,-61.433 3.207,-3.697 1.665,5.465 5.44,2.809 -4.676,2.179 0.092,5.734 -4.73,-4.425 -5.153,0.569 1.732,-4.602 -3.599,-5.417 z m -13.715,136.409 5.771,-13.482 5.832,13.292 -0.336,-7.105 11.242,9.388 0.789,0.141 12.479,-4.284 -3.929,14.272 8.752,12.589 -13.923,-0.698 -7.639,12.326 -3.047,-9.682 -9.945,-6.065 -11.701,6.879 2.117,-14.884 -9.596,-10.691 z m -36.597,-68.226 5.728,4.786 6.273,-2.161 -1.91,6.922 4.278,6.15 -6.812,-0.342 -3.758,6.065 -2.301,-7.313 -6.432,-2.405 5.294,-4.051 z m 2.956,73.782 -0.392,-8.274 6.188,5.165 6.793,-2.326 -2.062,7.497 4.614,6.646 -7.355,-0.367 -4.064,6.555 -2.478,-7.907 -6.971,-2.607 z m 14.003,-30.508 -4.517,-3.77 -5.123,1.756 1.555,-5.661 -3.451,-4.963 5.483,0.275 2.986,-4.822 1.842,5.833 5.294,1.982 -4.351,3.33 z m -0.851,-77.871003 -6.2,4.743 0.404,8.611003 -6.438,-5.374 -7.289,2.503 2.221,-8.066003 -4.908,-7.068997 7.809,0.392 4.253,-6.873 2.613,8.304997 z M 260.651,43.978 l 6.188,5.166 6.793,-2.326 -2.062,7.497 4.627,6.646 -7.369,-0.367 -4.063,6.554 -2.479,-7.907 -6.965,-2.607 5.722,-4.388 z m -28.935,108.593 7.65,6.371 8.439,-2.901 -2.564,9.321 5.734,8.256 -9.131,-0.453 -5.019,8.115 -3.084,-9.792 -8.666,-3.256 7.13,-5.459 z m -1.175,36.843 -4.572,4.235 1.175,8.819 -5.759,-6.102 -5.679,1.842 1.016,-8.005 -4.67,-7.687 6.377,1.163 2.784,-6.591 2.926,8.721 z m -18.366,-122.7 2.338,-3.776 1.438,4.56 4.144,1.554 -3.409,2.607 0.22,4.731 -3.538,-2.956 -4.002,1.377 1.218,-4.431 -2.699,-3.886 z m -4.835,29.454997 5.729,4.780003 6.273,-2.148003 -1.909,6.916003 4.266,6.15 -6.799,-0.343 -3.758,6.065 -2.301,-7.307 -6.426,-2.411 5.281,-4.052 z m -19.064,83.838003 -0.367,-7.656 5.734,4.78 6.267,-2.148 -1.909,6.916 4.278,6.151 -6.812,-0.343 -3.751,6.065 -2.307,-7.313 -6.432,-2.405 z m 5.013,75.105 1.493,-19.614 12.797,12.681 16.842,-5.171 -7.136,18.133 4.639,8.531 7.589,1.334 -4.284,4.736 0.894,1.635 -2.204,-0.184 -6.095,6.738 2.882,18.457 -14.59,-8.861 -14.499,8.543 2.674,-18.402 -11.824,-13.183 5.753,-0.887 -9.792,-4.26 z m -36.065,-117.7 2.484,-4.015 1.524,4.853 4.413,1.652 -3.623,2.772 0.239,5.037 -3.764,-3.14 -4.266,1.462 1.297,-4.712 -2.871,-4.131 z m -10.894,82.13 2.571,-8.519 1.787,3.122 4.633,0.232 2.986,-4.829 1.836,5.832 5.294,1.983 -4.352,3.335 0.282,6.046 -4.394,-3.666 -1.249,1.873 2.05,8.103 -6.873,-2.65 -6.304,5.44 0.453,-8.88 -5.734,-4.78 z m -38.054,-25.979 4.614,-0.82 3.341,-8.292 1.72,8.599 4.664,1.401 -3.959,5.312 0.073,8.586 -4.333,-4.352 -5.189,3.88 1.738,-8.611 -2.772,-5.429 c 0.035,-0.09 0.066,-0.182 0.103,-0.274 z m -1.224,40.258 3.292,-5.318 2.02,6.426 5.833,2.185 -4.792,3.672 0.318,6.665 -4.982,-4.155 -5.637,1.934 1.714,-6.242 -3.801,-5.465 z m -18.506999,21.138 4.773,-0.851 3.88,-9.645 2.007,9.994 5.568999,1.677 -4.73,6.358 0.085,10.123 -5.091999,-5.128 -6.089,4.553 2.044,-10.123 -2.821,-5.539 c 0.117,-0.47 0.251,-0.948 0.374,-1.419 z m -10.141,50.631 0.306,0.184 -0.214,-0.844 c 0.379,-2.713 0.759,-5.436 1.206,-8.201 l 2.381,0.121 -2.362,5.393 1.86,7.393 -3.464,-2.08 c 0.079,-0.644 0.195,-1.318 0.287,-1.966 z m 2.454,94.566 c -3.635,-11.672 -6.187,-23.869 -7.564,-36.494 -0.251,-2.283 -0.422,-4.59 -0.594,-6.902 l 1.67,-19.641 0.166,0.338 -1.738,19.297 c 0.171,2.312 0.3,4.619 0.545,6.902 l 1.346,-0.207 -0.998,0.207 c 1.371,12.564 3.715,24.701 7.32,36.316 z m 18.672,-2.515 -1.181,-2.344 3.928999,13.115 -16.198999,-11.609 -2.02,2.404 c -0.146,-0.482 -0.281,-0.979 -0.422,-1.469 l 0.704,-0.66 c -0.08,-0.27 -0.128,-0.545 -0.202,-0.814 l 1.634,-1.945 13.213,9.473 -5.037,-16.811 -5.386,-0.307 1.273,-9.891 -4.272,-12.183 6.169,4.541 1.964,-4.799 -8.758,-1.561 -7.613,-15.479 c -0.024,-1.156 -0.11,-2.275 -0.11,-3.426 v 0 c 0,-0.367 -0.82,-0.729 -0.82,-1.096 0,-0.637 -0.123,-1.297 -0.214,-1.959 l 9.988,20.307 8.225,1.469 0.269,-0.66 0.147,0.734 6.609999,1.18 -4.130999,10.895 6.003999,7.613 -4.601999,3.311 z m 63.702999,10.295 -1.457,-5.057 -5.233,-1.822 4.633,-2.768 0.123,-5.207 4.321,3.348 5.312,-1.391 -1.964,4.836 3.158,4.352 -5.532,-0.361 z m 15.949,62.777 -3.005,3.459 -1.561,-5.148 -4.994,-2.57 4.259,-1.988 -0.073,-5.049 4.192,3.916 4.945,-0.543 -1.671,4.406 3.133,4.705 z m -17.307,-110.074 -11.94,24.535 -0.643,-1.627 -4.21,11.125 8.433,12.676 -2.222,-0.508 4.076,3.408 4.651,-1.592 -1.407,5.117 3.176,4.57 -5.062,-0.25 -2.809,4.535 -1.72,-5.465 -4.749,-1.775 3.917,-2.992 -0.27,-5.605 -11.634,-2.656 -8.085,9.314 -1.487,-4.891 1.303,5.074 -9.645,-6.115 -7.356,9.328 -0.857,-16.574 -8.079,-9.619 8.562,-3.893 2.056,-16.262 6.757,14.633 2.527,0.16 -0.171,-11.543 11.285,10.539 12.76,-1.408 -11.249,-28.471 -26.567,-11.291 1.053,-0.893 -4.884,-0.881 -0.123,0.158 3.317,7.105 -6.255,-3.201 -2.558,3.402 -0.557,-3.139 -3.083999,7.602 -4.088,-14.67 -7.925,-7.484 5.575,-4.23 -1.86,-15.164 8.458,12.691 1.554,-0.098 0.335999,-4.859 4.07,4.572 1.01,-0.066 -0.11,1.076 1.444,1.621 8.403,-1.908 -3.525,9.154 3.164,6.305 15.704,-13.311 -4.768,-31.861 21.744,18.574 0.08,-3.557 5.992,4.646 20.27,-6.807 -1.799,11.727 9.847,-2.582 -6.983,17.221 11.254,15.502 -7.454,-0.49 10.282,13.955 z m 27.607,-39.713 -6.964,-2.613 5.728,-4.387 -0.392,-8.275 6.188,5.172 6.799,-2.338 -2.062,7.504 4.614,6.652 -7.356,-0.373 -4.064,6.555 z m 22.405,165.945 -6.873,-2.656 -6.31,5.439 0.453,-8.879 -5.734,-4.779 7.013,-2.645 2.571,-8.52 4.112,7.186 7.381,-0.238 -4.664,6.988 z m -1.273,-62.682 0.227,4.773 -3.176,-2.656 -2.393,3.867 -1.065,-3.371 -1.395,0.477 0.722,-2.619 -0.563,-1.799 -6.426,-2.412 5.282,-4.051 -0.361,-7.656 5.722,4.785 6.273,-2.16 -1.909,6.922 1.744,2.504 0.924,0.348 -0.446,0.344 2.056,2.955 z m 17.203,59.67 -2.484,2.857 -1.292,-4.252 -4.125,-2.125 3.513,-1.646 -0.062,-4.174 3.464,3.238 4.082,-0.453 -1.377,3.641 2.589,3.893 z m 8.287,-119.609 -6.64,-15.141 -0.098,-0.02 0.22,4.615 -6.989,-5.826 -7.448,-1.334 0.146,-0.166 -7.858,2.693 3.574,-13.012 -7.919,-11.4 12.595,0.631 6.866,-11.084 1.714,5.441 11.555,7.043 12.876,-7.564 -2.326,16.348 10.447,11.633 -14.302,2.174 z m 24.75,14.768 -0.361,-7.65 5.729,4.779 6.267,-2.16 -1.909,6.928 4.277,6.145 -6.811,-0.342 -3.751,6.064 -2.308,-7.307 -6.419,-2.412 z m 16.597,35.625 -4.523,-3.777 -5.116,1.758 1.554,-5.662 -3.452,-4.963 5.483,0.275 2.987,-4.822 1.836,5.832 5.294,1.982 -4.357,3.336 z m -2.877,-72.174 0.318,6.664 -4.981,-4.154 -5.637,1.934 1.713,-6.242 -3.8,-5.465 6.034,0.299 3.292,-5.312 2.02,6.42 5.832,2.186 z m -2.344,122.136 -3.078,-9.791 -8.678,-3.244 7.142,-5.465 -0.484,-10.221 7.644,6.383 8.445,-2.906 -2.563,9.326 5.728,8.256 -9.125,-0.459 z m 13.917,33.454 -4.981,-4.156 -5.643,1.934 1.713,-6.242 -3.8,-5.465 6.041,0.299 3.293,-5.318 2.02,6.428 5.832,2.184 -4.792,3.672 z m -0.575,-189.28 -9.095,16.395 -11.126,-30.258 -24.149,7.865 3.929,-18.869 -11.114,-4.473 11.983,-9.449 -18.58,-25.471 27.975,2.283 -2.209,-20.27 10.22,8.562 7.76,-13.979 10.104,27.479 26.561,-8.654 -4.479,21.494 8.636,3.476 -9.994,7.876 20.318,27.852 -30.729,-2.51 1.885,17.252 z m 29.504,80.692 -6.438,-5.367 -7.289,2.502 2.215,-8.064 -4.908,-7.07 7.81,0.393 4.253,-6.873 2.613,8.305 7.54,2.822 -6.199,4.742 z m 0.65,-34.621 5.141,-4.768 -1.481,-11.162 7.308,7.754 6.506,-2.111 -1.157,9.125 5.569,9.154 -7.662,-1.395 -3.439,8.139 -3.593,-10.672 z m 20.416,123.464 -3.109,5.006 -1.909,-6.033 -5.275,-1.971 4.346,-3.33 -0.301,-6.34 4.743,3.965 5.159,-1.781 -1.566,5.699 3.525,5.066 z m 3.029,-38.488 0.288,6.047 -4.517,-3.77 -5.123,1.756 1.555,-5.662 -3.451,-4.963 5.483,0.275 2.986,-4.822 1.836,5.832 5.294,1.982 z m 19.706,-70.135 -4.522,-3.771 -5.116,1.758 1.555,-5.662 -3.452,-4.963 5.484,0.275 2.986,-4.822 1.836,5.832 5.294,1.982 -4.346,3.318 z m -5.232,-81.232 -1.377,18.074 -11.774,-11.672 -15.545,4.773 6.598,-16.756 -3.936,-7.24 -11.102,-1.953 12.516,-13.837 -3.122,-19.976 15.809,9.596 15.68,-9.241 -2.889,19.872 12.674,14.125 -7.687,1.188 8.029,3.494 z m 37.442,119.15 -3.262,5.258 -1.989,-6.334 -5.545,-2.074 4.565,-3.488 -0.317,-6.646 4.969,4.154 5.423,-1.865 -1.646,5.979 3.69,5.312 z m 9.651,-83.763 -1.787,5.924 0.851,1.225 -6.812,-0.344 -3.758,6.066 -2.301,-7.309 -6.426,-2.41 5.281,-4.053 -0.361,-7.656 5.729,4.787 1.823,-0.631 0.099,-0.146 -1.72,-6.787 5.74,2.203 5.092,-4.389 -0.361,7.197 4.866,4.064 z m 33.52,26.677 -2.375,5.912 -1.23,-6.115 -3.935,-1.193 3.366,-4.516 -0.056,-6.646 3.305,3.322 3.905,-2.912 -1.328,6.566 2.473,4.848 z m 7.001,-39.322 -4.07,6.561 -2.479,-7.912 -6.964,-2.607 5.728,-4.389 -0.392,-8.268 6.188,5.166 6.793,-2.338 -2.063,7.502 4.627,6.652 z m 11.431,-33.39 4.805,-3.586 -1.628,8.078 3.035,5.955 -5.067,0.906 -2.925,7.27 -1.512,-7.521 -4.841,-1.463 4.137,-5.557 -0.067,-8.169 z m -13.31,-80.203 c 0.196,0.514 0.397,1.028 0.588,1.548 l -0.766,-1.634 z m -15.796,-38.004 0.189,12.876 -12.546,-11.726 -13.048,1.444 11.139,28.17 23.807,10.123 6.897,1.242 0.605,-0.808 c 0.251,0.685 0.496,1.377 0.747,2.068 l -0.563,0.747 -7.344,-1.322 3.862,7.705 -3.048,7.925 7.252,-1.652 2.074,2.332 0.753,-7.295 c 0.863,2.491 1.714,4.982 2.54,7.479 l -2.956,0.19 2.919,3.286 0.202,-2.962 c 0.515,1.555 1.022,3.115 1.518,4.669 l -0.189,2.779 -7.503,-8.434 -9.56,2.167 3.99,-10.374 -3.299,-6.585 -15.551,13.176 4.479,29.939 -19.547,-16.695 -0.135,5.82 -8.782,-6.812 -17.216,5.777 1.476,-9.633 -12.197,3.194 7.479,-18.452 -12.111,-16.677 9.835,0.649 -8.807,-11.958 25.521,2.454 10.765,-22.111 -0.386,0.042 4.841,-12.821 -9.443,-14.192 15.766,3.599 3.458,-3.984 c 0.03,0.061 0.067,0.128 0.098,0.189 0.275,0.521 0.532,1.059 0.802,1.579 l -3.69,4.247 -12.362,-2.821 7.424,11.157 -4.125,10.894 12.233,-1.353 10.013,9.345 -0.153,-10.374 -4.492,-0.282 2.461,-6.187 c 0.752,1.566 1.486,3.14 2.228,4.718 0.281,0.606 0.575,1.206 0.856,1.812 0.279,0.572 0.561,1.141 0.824,1.717 z"
     id="path47"
     style="fill:url(#linearGradient49);fill-opacity:1" /></g>
</svg>
