<?xml version="1.0" encoding="UTF-8" standalone="no"?>
<svg
   width="20"
   height="20"
   viewBox="0 0 20 20"
   fill="none"
   version="1.1"
   id="svg1"
   sodipodi:docname="LinkedIn.svg"
   inkscape:version="1.4.2 (f4327f4, 2025-05-13)"
   xmlns:inkscape="http://www.inkscape.org/namespaces/inkscape"
   xmlns:sodipodi="http://sodipodi.sourceforge.net/DTD/sodipodi-0.dtd"
   xmlns="http://www.w3.org/2000/svg"
   xmlns:svg="http://www.w3.org/2000/svg">
  <sodipodi:namedview
     id="namedview1"
     pagecolor="#ffffff"
     bordercolor="#000000"
     borderopacity="0.25"
     inkscape:showpageshadow="2"
     inkscape:pageopacity="0.0"
     inkscape:pagecheckerboard="0"
     inkscape:deskcolor="#d1d1d1"
     inkscape:zoom="40.35"
     inkscape:cx="9.9876084"
     inkscape:cy="10"
     inkscape:window-width="1920"
     inkscape:window-height="1046"
     inkscape:window-x="-11"
     inkscape:window-y="-11"
     inkscape:window-maximized="1"
     inkscape:current-layer="svg1" />
  <path
     d="M 18.5195,0 H 1.47656 C 0.660156,0 0,0.644531 0,1.44141 V 18.5547 C 0,19.3516 0.660156,20 1.47656,20 H 18.5195 C 19.3359,20 20,19.3516 20,18.5586 V 1.44141 C 20,0.644531 19.3359,0 18.5195,0 Z M 5.93359,17.043 H 2.96484 V 7.49609 H 5.93359 Z M 4.44922,6.19531 c -0.95313,0 -1.72266,-0.76953 -1.72266,-1.71875 0,-0.94922 0.76953,-1.71875 1.72266,-1.71875 0.94922,0 1.71875,0.76953 1.71875,1.71875 0,0.94532 -0.76953,1.71875 -1.71875,1.71875 z M 17.043,17.043 h -2.9649 v -4.6407 c 0,-1.1054 -0.0195,-2.53121 -1.5429,-2.53121 -1.543,0 -1.7774,1.20701 -1.7774,2.45311 V 17.043 H 7.79688 V 7.49609 h 2.84372 v 1.30469 h 0.0391 c 0.3945,-0.75 1.3633,-1.54297 2.8047,-1.54297 3.0039,0 3.5586,1.97657 3.5586,4.54689 z"
     fill="#262626"
     id="path1"
     style="fill:#caff33;fill-opacity:1" />
  <defs
     id="defs1" />
</svg>
